<svg version="1.1" id="Layer_1" xmlns="http://www.w3.org/2000/svg" xmlns:xlink="http://www.w3.org/1999/xlink" x="0px" y="0px"
	 width="100%" viewBox="0 0 1024 672" enable-background="new 0 0 1024 672" xml:space="preserve">
<path fill="#000000" opacity="1.000000" stroke="none" 
	d="
M204.468658,673.000000 
	C203.258408,664.926147 202.304550,656.920349 197.495239,649.982178 
	C197.049988,649.339783 196.909088,648.403687 196.851685,647.588196 
	C196.369995,640.745789 193.760544,634.604675 191.594818,628.174377 
	C188.849258,620.022522 187.033752,611.514160 184.335587,603.222229 
	C182.380859,597.215027 180.138290,590.964783 179.030731,584.846985 
	C177.106537,574.218262 171.355072,564.695984 170.930328,553.778564 
	C170.808105,550.637207 167.823257,548.521484 167.572037,545.537109 
	C166.688553,535.042419 160.573990,525.952820 159.753632,515.423279 
	C159.444519,511.455933 156.344177,508.296204 155.574158,504.282440 
	C153.369690,492.791534 148.977295,481.853790 146.354736,470.530426 
	C144.413300,462.147919 141.262268,454.167023 139.290237,445.794495 
	C137.657318,438.861816 135.850601,431.682709 132.971390,424.967834 
	C130.164841,418.422363 129.287521,411.295441 127.014221,404.530365 
	C123.982788,395.509186 121.174141,386.302185 118.958801,377.048828 
	C116.142143,365.283722 112.360588,353.798981 109.192184,342.158722 
	C106.385895,331.848785 103.363197,321.502289 100.050224,311.286835 
	C97.957031,304.832550 96.504158,298.172852 94.669037,291.631958 
	C93.240135,286.538940 91.768204,281.453369 90.133629,276.423584 
	C86.139931,264.134460 83.213226,251.534988 78.759514,239.362320 
	C75.737816,231.103561 79.560051,224.358566 85.997078,218.323120 
	C94.201561,210.630508 103.667549,209.242493 114.130470,208.588791 
	C130.416214,207.571320 146.384689,203.582794 162.592346,201.940582 
	C194.069839,198.751190 225.319962,193.737091 256.815582,190.754730 
	C265.761200,189.907654 274.730560,189.053223 283.585236,187.578766 
	C292.087128,186.163040 300.410980,183.966583 307.554443,178.564087 
	C314.839661,173.054352 323.716553,172.829788 332.301483,171.948746 
	C335.807129,171.588974 339.465637,171.477692 342.538086,169.918839 
	C351.293549,165.476593 360.000732,167.387985 368.869751,169.166916 
	C390.197479,173.444794 411.692627,175.115997 433.422363,172.995834 
	C437.978333,172.551315 442.073364,170.625412 446.460297,169.643066 
	C455.466278,167.626404 464.562744,167.001862 473.733459,167.011230 
	C484.537506,167.022278 494.691162,163.782089 504.925171,160.921570 
	C505.562714,160.743378 506.144226,160.270935 506.781555,160.199219 
	C522.509399,158.429642 536.809509,151.939117 551.643982,147.105270 
	C558.767090,144.784195 566.763062,144.498199 574.369690,144.459366 
	C584.995789,144.405121 594.028015,140.211761 603.190552,135.734940 
	C613.655884,130.621552 624.508118,128.578918 635.994446,132.484543 
	C640.709106,134.087662 645.635437,135.067886 650.465027,136.333435 
	C652.928040,136.978836 655.474365,137.261688 657.871094,136.427887 
	C663.821594,134.357834 669.837769,134.200424 676.062500,134.733383 
	C689.228333,135.860580 701.748291,132.259186 714.473938,129.495438 
	C731.109436,125.882599 747.963501,124.440414 764.730957,129.829544 
	C772.619751,132.365067 778.636414,136.884323 782.483398,144.139618 
	C785.085327,149.046844 788.960022,152.240891 793.713501,155.067642 
	C802.618652,160.363251 811.915649,165.258514 815.328491,176.576157 
	C816.930786,181.889603 822.946045,183.610016 827.482483,186.347885 
	C838.017395,192.706070 850.148926,195.852524 860.379028,202.823883 
	C861.858704,203.832199 863.612366,204.579605 865.347229,205.045319 
	C870.216187,206.352386 874.183594,208.888260 877.037903,213.049149 
	C878.546021,215.247650 880.537537,216.932571 883.163025,216.858490 
	C895.731262,216.503937 906.654968,222.603638 918.332825,225.689346 
	C922.918823,226.901154 926.821106,227.129044 931.227234,224.766693 
	C940.055298,220.033569 949.632141,222.831955 955.121521,231.100479 
	C955.579895,231.790894 956.011230,232.614502 956.671936,233.037750 
	C965.135559,238.459366 968.292725,247.807831 973.428040,255.672943 
	C975.527710,258.888672 977.015198,262.448181 977.165283,266.408325 
	C977.250122,268.647583 978.185547,270.579102 979.307800,272.462738 
	C982.842163,278.395142 987.652954,283.233673 992.626343,287.910889 
	C994.358215,289.539642 996.732788,290.768005 998.985046,290.472046 
	C1006.480347,289.487000 1013.884521,291.258392 1021.336975,290.808990 
	C1022.562622,290.735077 1023.600586,290.322083 1024.736816,289.235626 
	C1025.000000,315.020905 1025.000000,341.041779 1025.000000,367.531311 
	C948.445129,305.277374 871.890503,242.554474 795.335144,179.832413 
	C780.385132,167.583862 765.370728,155.412582 750.527283,143.036331 
	C747.061890,140.146942 743.809509,139.276077 739.184692,139.923126 
	C712.819153,143.611908 686.389771,146.844482 659.981262,150.226196 
	C623.497253,154.898148 587.080750,160.044449 550.729248,165.658279 
	C507.972504,172.261246 465.267151,179.184875 422.183411,183.506180 
	C393.363403,186.396835 364.505920,188.824005 335.672058,191.520264 
	C292.768127,195.532181 249.819794,199.189285 207.098633,205.019287 
	C184.680771,208.078552 162.199249,210.671112 139.747452,213.482224 
	C139.088104,213.564774 138.441238,213.743439 137.786087,213.863861 
	C131.756790,214.972260 131.491043,215.404068 133.573135,221.385483 
	C136.911713,230.976486 140.303268,240.549026 143.653198,250.136093 
	C162.271622,303.419281 180.901810,356.698395 199.494415,409.990631 
	C222.806274,476.809692 246.083557,543.640808 269.380402,610.465149 
	C276.561890,631.064453 283.758453,651.658569 290.974060,672.627563 
	C262.312439,673.000000 233.624878,673.000000 204.468658,673.000000 
z"/>
<path fill="#000000" opacity="1.000000" stroke="none" 
	d="
M747.494690,322.542664 
	C719.495117,306.010132 691.994263,289.338409 664.024048,273.495209 
	C654.177185,267.917633 643.375244,263.727448 632.123901,261.505646 
	C622.330139,259.571716 614.007019,255.938156 609.467712,246.326431 
	C608.197571,243.637115 605.570374,242.283417 603.173523,240.789581 
	C586.356628,230.308441 569.576782,219.766098 552.667358,209.436111 
	C547.677917,206.388123 545.430908,202.109390 545.746643,196.564774 
	C546.205200,188.511047 550.117981,182.312134 557.098511,178.286728 
	C561.072327,175.995163 565.265259,175.815048 569.497803,178.073975 
	C601.239197,195.014526 633.005188,211.908997 664.756531,228.830902 
	C665.633850,229.298477 666.678406,229.731171 667.232544,230.483795 
	C674.805542,240.769028 686.703491,244.749207 697.165649,250.597244 
	C774.664185,293.916473 852.324097,336.946991 929.943481,380.049988 
	C936.204651,383.526917 942.518433,386.910889 948.848389,390.261383 
	C957.382690,394.778595 964.587646,401.398956 973.330505,405.605042 
	C975.696594,406.743347 977.195374,409.113556 977.101929,411.715240 
	C976.963379,415.573883 979.134155,417.308472 982.079407,418.966278 
	C989.250427,423.002625 989.462158,423.966858 987.091248,431.834137 
	C985.964172,435.574036 984.393250,438.963226 981.665405,441.791534 
	C977.392273,446.222015 974.191040,446.762360 968.932739,443.576111 
	C966.886169,442.336029 964.901733,442.330688 962.709351,442.779938 
	C957.935913,443.758118 953.543701,442.878052 949.282349,440.405060 
	C936.611267,433.051727 923.472900,426.524414 911.062744,418.697601 
	C907.738770,416.601227 904.839783,414.272247 903.160461,410.632935 
	C901.846008,410.520874 901.722961,413.180115 899.992371,411.867493 
	C896.814148,409.456879 896.875916,406.251648 897.831970,402.889191 
	C896.201050,401.846771 894.727295,400.904816 892.941040,399.763153 
	C892.225159,402.601776 894.289429,404.962067 892.669983,408.070099 
	C844.353088,379.605713 796.080811,351.167664 747.494690,322.542664 
M756.591980,304.966705 
	C753.730347,303.477875 757.539246,302.029419 756.660706,300.619629 
	C754.696228,299.454895 753.066467,297.818848 750.780701,297.374786 
	C749.036621,298.187805 748.606628,301.192932 746.195251,300.677887 
	C744.299011,298.333282 749.648254,296.446167 745.740417,293.938141 
	C746.633850,297.340454 745.036133,298.388000 742.141418,298.980530 
	C742.628479,296.420166 741.393066,294.691376 740.242737,292.366150 
	C739.923218,294.949066 737.994019,295.828308 736.529114,297.136688 
	C746.720520,301.110870 755.759094,306.960785 765.335876,312.744965 
	C763.489075,310.908997 765.003418,309.364929 765.748230,307.740692 
	C764.549377,307.688049 763.949036,308.909576 763.098694,307.954559 
	C763.586060,305.114563 764.073425,302.274536 764.639648,298.974854 
	C760.929810,299.808044 759.424988,302.836670 756.591980,304.966705 
M808.688232,318.808929 
	C808.248901,317.923401 807.483765,317.548981 806.672241,318.067810 
	C801.449097,321.407196 797.692444,325.886566 795.360840,332.208221 
	C811.481995,327.831421 808.805237,328.807800 808.688232,318.808929 
M796.726624,317.675842 
	C793.863098,315.443085 789.721069,316.029083 789.759399,318.858704 
	C789.812378,322.775482 789.569031,326.971588 792.216309,331.500153 
	C794.198303,326.677094 798.964905,323.783386 796.726624,317.675842 
M781.752319,320.653046 
	C783.076782,317.472565 784.401306,314.292084 785.731018,311.099182 
	C782.090271,309.943359 776.372070,314.184814 776.825378,317.549164 
	C777.065552,319.330902 780.784302,321.599152 781.752319,320.653046 
z"/>
<path fill="#000000" opacity="1.000000" stroke="none" 
	d="
M293.029266,472.033508 
	C290.515503,472.306641 289.010345,471.591309 288.582428,468.709564 
	C287.875671,463.949982 286.821167,459.237152 285.784119,454.533081 
	C284.993958,450.948761 285.789337,448.776184 289.907501,448.394470 
	C293.704102,448.042572 297.450104,447.178070 301.237946,446.691711 
	C308.941437,445.702545 316.835419,445.656433 323.555115,440.743866 
	C325.336121,439.441833 327.695221,438.741394 331.104797,438.958099 
	C327.468750,441.937805 328.845703,444.558563 329.881287,447.583679 
	C331.534454,452.412659 330.837952,457.821503 333.217590,462.586731 
	C334.192474,464.538940 332.965393,465.787476 331.050293,466.196686 
	C319.351257,468.696411 307.642181,471.149261 295.937775,473.624115 
	C294.820282,473.860413 293.999664,473.451050 293.554504,472.167114 
	C298.431580,470.042023 303.846558,470.487274 308.277618,467.419159 
	C306.550049,462.020935 299.607635,462.192505 297.998962,456.929535 
	C301.091095,457.156586 301.091064,457.156616 303.100739,458.519806 
	C309.637604,462.953888 310.819641,462.487701 312.398621,454.848419 
	C312.499298,454.361481 312.570984,453.868652 312.664307,453.380096 
	C313.338470,449.849915 312.254883,447.818634 308.292633,448.341583 
	C304.028198,448.904449 299.786591,449.740936 295.505554,450.051331 
	C290.537628,450.411530 289.312592,453.106964 290.149963,457.449463 
	C291.088226,462.314941 292.067719,467.172516 293.029266,472.033508 
M328.435974,462.867798 
	C328.090271,459.266785 327.870819,455.647491 327.353027,452.071411 
	C327.025818,449.811523 326.636139,447.257660 323.466400,447.185852 
	C320.637726,447.121704 318.221954,447.895203 317.063080,450.841370 
	C315.598877,454.563629 314.716461,458.432098 314.435913,462.403137 
	C314.236450,465.226410 315.595215,467.056824 318.600677,466.351227 
	C321.782501,465.604218 325.169464,465.404236 328.435974,462.867798 
z"/>
<path fill="#000000" opacity="1.000000" stroke="none" 
	d="
M446.267151,477.417969 
	C441.007812,484.092804 442.077789,491.339233 443.158569,498.613373 
	C443.417480,500.355835 445.559082,502.842377 442.572693,503.681213 
	C439.796387,504.461029 439.083923,501.697784 438.657532,499.592438 
	C438.198090,497.323822 438.060608,494.985779 437.850311,492.671875 
	C437.484283,488.643738 436.622894,484.820831 434.149048,481.462738 
	C430.650543,476.713745 428.423065,476.776917 425.299652,481.896027 
	C423.783417,484.381073 423.234985,487.103851 423.298248,490.006958 
	C423.396057,494.495026 423.416931,498.985321 423.415649,503.474670 
	C423.415253,504.829803 423.266083,506.333191 421.508942,506.477539 
	C419.857605,506.613220 419.074524,505.389618 419.040619,503.945435 
	C418.864777,496.457245 418.250427,489.015442 417.135010,481.606354 
	C416.932526,480.261444 417.702240,478.189240 419.037109,478.783783 
	C422.669678,480.401794 424.103577,477.755798 426.132233,475.982727 
	C428.688202,473.748749 431.333221,474.038757 433.811737,476.069275 
	C435.461639,477.420990 436.932495,478.991272 438.363953,480.350250 
	C440.244476,480.173401 440.588287,478.688660 441.370667,477.681915 
	C446.147003,471.536041 451.940796,471.751678 456.353455,478.217773 
	C459.440002,482.740540 460.275909,488.060638 461.668060,493.170441 
	C462.377777,495.775238 463.271332,497.883667 466.784485,497.284851 
	C466.537811,500.112732 465.628326,501.964569 463.036224,502.084106 
	C460.550934,502.198669 459.770782,500.073914 459.143921,498.167816 
	C457.279144,492.497498 456.766998,486.355865 453.712860,481.123993 
	C452.251801,478.621155 450.885468,474.908203 446.267151,477.417969 
z"/>
<path fill="#000000" opacity="1.000000" stroke="none" 
	d="
M278.909241,397.774170 
	C286.813049,396.169647 294.303375,394.675537 301.773285,393.085632 
	C305.905701,392.206024 308.208893,393.322174 308.113159,397.988037 
	C307.996857,403.660034 309.333344,409.114258 311.469849,414.504089 
	C306.730255,417.571625 301.537842,417.889435 296.533264,418.820831 
	C290.334320,419.974487 284.140045,421.158478 277.924011,422.213013 
	C272.748810,423.090973 270.191803,421.019318 269.664398,415.771027 
	C269.299011,412.135162 269.285767,408.410400 268.433105,404.890564 
	C267.372803,400.513367 269.214111,399.134369 273.107208,398.836731 
	C274.915253,398.698486 276.694733,398.186890 278.909241,397.774170 
M280.337097,408.673553 
	C281.937836,409.554169 283.499451,410.518372 285.151001,411.290375 
	C286.614441,411.974487 288.444000,412.121979 289.001923,410.359985 
	C290.401062,405.941406 292.859283,402.150299 295.611359,398.009949 
	C288.255005,399.211517 281.008423,399.211060 274.234497,401.908875 
	C273.110504,402.356537 272.320984,403.485016 272.447723,404.704102 
	C272.891998,408.978027 272.868805,413.329041 274.255676,417.466278 
	C274.648865,418.639191 275.434265,419.655396 276.750977,419.554260 
	C280.421265,419.272461 284.224915,419.346893 287.533661,417.034058 
	C286.029053,413.909637 283.073517,413.637695 280.919586,412.228394 
	C278.832550,410.862823 278.815155,410.889404 280.337097,408.673553 
M301.096039,399.631592 
	C295.809235,401.765381 292.845612,405.699554 292.512054,411.358032 
	C292.303345,414.899017 293.531067,417.030457 297.857239,416.181183 
	C306.537781,414.477173 307.006531,414.141418 305.204041,405.536377 
	C304.739044,403.316650 306.033722,399.702148 301.096039,399.631592 
z"/>
<path fill="#000000" opacity="1.000000" stroke="none" 
	d="
M381.412292,380.766693 
	C383.555359,381.485931 384.766693,380.675690 386.122742,379.437683 
	C390.818939,375.150208 392.975891,375.249451 397.468842,379.731689 
	C399.211304,381.469940 400.840118,383.322113 402.468262,385.066254 
	C405.194427,384.205200 404.824524,381.729370 405.681763,380.087860 
	C410.018494,371.783691 416.836182,371.184601 422.279938,378.842957 
	C423.519928,380.587341 424.541595,382.554504 425.305878,384.555817 
	C427.129822,389.331726 428.767639,394.176849 432.377441,398.389435 
	C428.972443,400.464966 427.448639,399.020325 426.466095,396.659424 
	C424.741974,392.516724 423.329926,388.239105 421.495087,384.149048 
	C419.859833,380.503723 417.788269,375.892944 413.270660,376.756348 
	C408.418060,377.683746 407.586884,382.737823 407.369629,387.207764 
	C407.192017,390.861328 407.215179,394.520569 407.967957,398.146179 
	C408.225494,399.386566 408.637238,401.053101 406.911011,401.549011 
	C404.973602,402.105621 404.303528,400.524750 403.899200,399.035492 
	C402.320465,393.220612 400.490540,387.528809 396.205933,383.029388 
	C391.843872,378.448639 390.072449,378.854034 386.844452,384.187286 
	C383.580963,389.579163 384.548492,395.004791 385.630463,400.608307 
	C385.971466,402.374420 387.374420,405.054474 384.523804,405.647766 
	C382.027161,406.167358 381.302673,403.414551 381.067780,401.560516 
	C380.192902,394.655426 379.957428,387.713562 381.412292,380.766693 
z"/>
<path fill="#000000" opacity="1.000000" stroke="none" 
	d="
M325.495850,502.539307 
	C321.374359,503.566162 317.662170,504.505524 313.946960,505.432739 
	C310.689728,506.245697 309.267548,508.385742 309.430084,511.664459 
	C309.635712,515.814026 309.862457,519.962524 310.071503,524.111938 
	C310.197754,526.617737 311.336761,527.758484 313.953705,527.206787 
	C323.236908,525.249695 332.531342,523.345764 341.816284,521.396790 
	C344.247833,520.886414 344.897888,519.135498 344.774353,516.899963 
	C344.517303,512.247192 344.246857,507.594879 344.028748,502.940216 
	C343.931702,500.869354 343.434174,498.641571 346.108948,496.553101 
	C348.308838,500.939362 347.252167,505.359772 347.983307,509.415253 
	C348.598450,512.827087 348.335846,516.420532 349.571869,519.737427 
	C350.562134,522.394836 349.416199,523.652466 346.987885,523.822937 
	C335.621582,524.621033 324.797424,528.184143 313.672821,530.188721 
	C307.445923,531.310852 305.368530,529.255432 305.862244,522.916992 
	C306.252472,517.906677 306.053192,512.920532 305.320801,507.972900 
	C305.043457,506.099152 304.931183,504.576172 307.139221,504.117767 
	C317.888184,501.886230 328.427246,498.678528 339.333832,497.196106 
	C339.897705,497.119446 340.529236,497.540253 342.458099,498.148438 
	C336.613983,501.480225 330.978363,501.018860 325.495850,502.539307 
z"/>
<path fill="#000000" opacity="1.000000" stroke="none" 
	d="
M483.747864,487.473541 
	C479.967377,492.192169 480.601562,485.733215 478.617493,485.791077 
	C476.738953,485.802063 475.620239,487.044342 474.609833,488.381653 
	C472.922791,490.614471 473.361877,492.877014 475.071289,494.751831 
	C476.671143,496.506500 478.745972,496.057648 480.574280,494.970215 
	C483.160828,493.431763 484.691833,491.181793 484.886078,488.072693 
	C484.961823,486.860504 485.478271,485.769928 486.936462,485.649353 
	C488.396484,485.528625 489.053131,486.408813 489.250946,487.711639 
	C489.787842,491.248138 492.295898,491.203857 494.917267,490.775909 
	C497.891876,490.290314 497.916870,487.946075 497.649231,485.756042 
	C497.205475,482.124390 496.469757,478.529358 495.942413,474.906433 
	C495.749634,473.581879 495.661377,471.983307 497.519257,471.837067 
	C499.064392,471.715393 499.183289,473.157501 499.395447,474.308411 
	C499.606873,475.455505 499.942017,476.595306 500.009155,477.750702 
	C500.235779,481.652557 501.745880,483.272583 505.745239,481.469604 
	C507.969574,480.466888 510.389343,480.372253 512.320984,482.158813 
	C514.527344,484.199402 511.008270,485.521149 511.392975,487.414917 
	C513.700439,488.798615 516.382324,486.668030 518.632935,488.246307 
	C516.375610,491.199219 511.366150,492.185608 507.762665,490.424530 
	C505.234833,489.189148 505.107819,488.698364 506.334290,484.703339 
	C504.468933,484.823456 503.990692,486.367340 503.356812,487.595825 
	C500.518524,493.096344 497.304138,494.976349 490.918518,493.973206 
	C488.313354,493.563934 486.476990,493.903046 484.708496,495.847961 
	C483.363770,497.326874 481.586945,498.388611 479.616425,498.896210 
	C476.032288,499.819458 472.941467,498.949158 470.862152,495.779144 
	C469.006622,492.950348 468.279572,489.877716 470.737213,486.999695 
	C473.303680,483.994263 476.316223,481.554108 480.642792,482.620911 
	C482.796326,483.151855 483.877808,484.844543 483.747864,487.473541 
z"/>
<path fill="#000000" opacity="1.000000" stroke="none" 
	d="
M294.463409,352.791931 
	C295.332275,356.722137 296.148682,360.257202 297.116241,364.446899 
	C283.784607,366.530975 270.735352,368.570892 257.007874,370.716858 
	C258.328308,364.642059 257.132721,359.756744 256.412109,354.902893 
	C255.823105,350.935455 257.337006,349.352875 260.899017,348.848145 
	C265.982239,348.127899 271.064117,347.397278 276.141785,346.639069 
	C281.219299,345.880890 286.359161,345.348267 290.549103,341.833099 
	C291.531860,341.008667 292.775909,340.323639 294.663116,341.003510 
	C291.828857,344.739929 294.461548,348.547028 294.463409,352.791931 
M281.531219,349.643829 
	C281.129639,347.472931 279.476227,348.551208 278.468414,348.655884 
	C275.015717,349.014343 271.587189,349.610016 268.152191,350.133423 
	C259.222473,351.494202 259.154266,351.588348 260.276855,360.468414 
	C261.273895,368.355316 265.494843,369.838165 272.475830,364.641144 
	C271.305145,360.923004 265.811096,361.367493 264.612396,356.892578 
	C269.155151,357.012207 271.925293,362.787964 275.720642,360.438354 
	C278.988098,358.415466 279.163452,353.468842 281.531219,349.643829 
M280.258820,361.360840 
	C280.181702,363.081329 280.712616,364.208160 282.696289,364.344604 
	C290.512085,364.882141 293.182648,362.003357 291.811066,354.413300 
	C291.575592,353.110321 291.423828,351.777100 291.033234,350.520050 
	C289.885345,346.825867 288.000702,346.387390 285.515411,349.449310 
	C282.881012,352.694946 281.113800,356.448822 280.258820,361.360840 
z"/>
<path fill="#000000" opacity="1.000000" stroke="none" 
	d="
M456.005432,331.533691 
	C457.093811,332.647156 456.986511,333.576996 456.581177,334.562347 
	C456.214478,335.453857 455.907410,336.369843 455.598572,337.208466 
	C458.205017,340.185822 461.470520,337.243469 464.180023,338.476349 
	C462.057343,341.460724 458.537964,341.974121 453.821594,340.471497 
	C450.743591,339.490906 450.140961,337.542480 451.244385,334.426056 
	C448.300598,334.552734 447.335052,336.119904 447.246185,338.236603 
	C447.106354,341.568054 445.735596,343.083832 442.238129,343.693756 
	C438.482788,344.348663 434.908722,345.764954 431.005646,344.639130 
	C429.206787,344.120300 427.896759,345.445831 426.423462,346.168884 
	C423.242950,347.729675 419.946320,348.744019 416.337860,347.847504 
	C413.311310,347.095520 411.264679,345.305847 410.779999,342.176392 
	C410.264526,338.848053 411.744171,336.376068 414.605499,334.711395 
	C419.897919,331.632324 427.342102,333.358978 430.121338,338.957703 
	C432.313324,343.373444 435.240784,342.866852 438.792572,341.707062 
	C442.673676,340.439728 441.922150,337.514648 441.194458,334.744843 
	C440.436829,331.861267 439.445648,329.037750 438.516144,326.201233 
	C437.997314,324.617889 437.152039,322.993073 439.876038,322.144012 
	C442.183929,324.208405 442.240570,327.402863 443.427032,330.012573 
	C444.456726,332.277435 445.597443,333.103821 448.011230,331.936401 
	C450.437134,330.763153 453.017120,330.097870 456.005432,331.533691 
M425.771393,340.605591 
	C425.497620,339.839111 425.384094,338.955170 424.922913,338.326050 
	C422.685028,335.273163 419.860718,334.779663 416.783936,336.950836 
	C414.531403,338.540314 413.396454,340.802887 415.108368,343.338348 
	C417.182922,346.410980 420.120117,345.957489 423.039703,344.587708 
	C424.433289,343.933899 425.563110,343.016388 425.771393,340.605591 
z"/>
<path fill="#000000" opacity="1.000000" stroke="none" 
	d="
M425.946564,448.128204 
	C419.267639,451.732330 412.354004,452.563904 405.303131,452.583099 
	C401.813171,452.592590 399.134735,451.785187 399.588165,447.137543 
	C399.948486,443.444122 397.776062,440.100586 396.997650,436.530548 
	C396.512817,434.307190 395.017639,434.199493 393.158508,434.928741 
	C389.432861,436.390106 385.713440,437.850586 382.573547,440.426880 
	C381.708221,441.136871 381.001038,442.220459 379.362091,441.395844 
	C378.728241,438.969666 380.494873,437.840363 382.164154,436.916779 
	C392.488434,431.204468 403.488953,427.592407 415.301575,426.740356 
	C419.183350,426.460327 422.983307,427.143341 426.398132,429.093658 
	C435.016907,434.016052 434.938782,442.134796 425.946564,448.128204 
M401.621521,440.869965 
	C402.307159,442.909393 403.046509,444.932709 403.663239,446.992767 
	C404.274170,449.033386 405.530609,449.927124 407.680634,449.880646 
	C413.578339,449.753265 419.190796,448.557648 424.304169,445.536346 
	C427.147888,443.856049 429.479309,441.419006 429.057861,437.988678 
	C428.635925,434.554688 426.361206,431.948730 422.995209,430.689331 
	C414.969421,427.686493 407.593689,430.622223 400.031036,432.483002 
	C400.605316,435.590179 401.022308,437.846252 401.621521,440.869965 
z"/>
<path fill="#000000" opacity="1.000000" stroke="none" 
	d="
M363.263062,349.565430 
	C359.667969,342.786560 358.471680,336.194458 361.543030,328.279968 
	C364.281982,331.801392 363.056793,334.866150 363.115448,337.621521 
	C363.223297,342.688599 364.356537,347.179230 368.349274,350.574280 
	C373.619965,355.055908 378.235352,353.769989 380.435852,347.184906 
	C380.852539,345.937927 380.895050,344.569427 381.161865,343.267609 
	C381.362610,342.288055 381.598694,341.207031 382.788788,341.021576 
	C384.274750,340.790009 384.669189,341.936646 385.169006,343.049927 
	C387.976440,349.303040 391.122620,350.999115 397.575348,349.839294 
	C402.136963,349.019348 404.265381,345.639526 404.609711,339.250641 
	C405.009369,331.834625 401.810730,326.489380 395.712555,322.560608 
	C394.294525,321.647003 392.108917,321.445404 391.842896,319.126892 
	C398.723511,319.074127 406.576233,326.928070 407.303711,334.559082 
	C407.429626,335.879761 407.359161,337.219116 407.381104,338.549805 
	C407.582184,350.735352 399.647339,356.248108 388.121216,351.539398 
	C384.730408,350.154175 382.597778,349.651184 380.337433,353.189636 
	C378.156769,356.603271 374.666626,356.922394 371.026794,355.361237 
	C368.096008,354.104248 365.304443,352.650909 363.263062,349.565430 
z"/>
<path fill="#000000" opacity="1.000000" stroke="none" 
	d="
M440.648376,284.917267 
	C399.590271,287.984863 359.362549,294.650879 318.703705,297.103088 
	C367.493744,291.049286 416.100769,283.268280 465.372223,281.757629 
	C457.457733,284.280243 449.199188,283.876465 440.648376,284.917267 
z"/>
<path fill="#000000" opacity="1.000000" stroke="none" 
	d="
M524.342041,321.357727 
	C526.011047,321.845245 526.210144,322.974579 526.359985,324.172668 
	C526.639709,326.409058 528.022705,327.401672 530.171509,327.129089 
	C532.088135,326.885956 533.814941,326.144623 533.873657,323.811371 
	C533.992676,319.081543 537.206238,316.974823 541.080017,316.135193 
	C546.024109,315.063599 551.062805,315.213867 555.474670,318.289124 
	C556.760437,319.185333 556.698547,320.514832 555.871033,321.835358 
	C554.188660,324.520050 546.644226,327.048523 542.690613,325.956512 
	C545.510925,323.058594 550.782898,324.327026 552.692871,319.417450 
	C548.328674,317.692169 544.117188,317.419708 540.157654,319.296173 
	C537.256775,320.670959 537.561646,323.588654 538.473999,326.329620 
	C539.922546,330.681610 541.020325,335.108459 541.484558,340.092499 
	C537.064575,339.362000 536.844543,335.938721 536.082764,333.351501 
	C535.167725,330.243683 533.696289,329.537933 530.440491,329.302856 
	C525.712585,328.961395 521.296143,330.622833 516.693176,330.373718 
	C511.321594,330.083008 508.814636,326.036377 511.060303,321.393829 
	C512.942078,321.317596 513.005371,322.789337 513.339111,324.055939 
	C513.995728,326.548065 515.326538,328.384460 518.191040,328.088470 
	C520.763184,327.822723 522.624634,326.645264 522.490906,323.626526 
	C522.442871,322.542664 522.855774,321.678406 524.342041,321.357727 
z"/>
<path fill="#000000" opacity="1.000000" stroke="none" 
	d="
M386.709473,265.681152 
	C391.828003,260.589966 397.910980,261.573181 404.074615,261.989380 
	C405.457794,257.128479 402.291351,252.650803 402.757690,247.631882 
	C405.988617,248.436859 405.833679,250.920517 406.166199,252.797440 
	C407.004669,257.530548 407.540222,262.316925 408.218994,267.078857 
	C408.508484,269.109589 408.569244,270.826324 410.545380,272.633087 
	C412.335205,274.269531 411.298981,278.020172 412.363312,280.809052 
	C412.797760,281.947540 410.127228,282.045258 409.370880,280.880646 
	C407.385895,277.824188 405.310638,279.161194 402.976410,280.223663 
	C398.640350,282.197266 394.190125,283.161896 389.471436,281.356171 
	C382.149933,278.554413 381.033783,273.022583 386.709473,265.681152 
M390.677795,266.077515 
	C387.626068,268.650940 384.753448,271.569611 386.910156,275.838196 
	C389.070465,280.113983 393.353912,280.118927 397.415375,279.444916 
	C399.330505,279.127106 401.208282,278.212646 402.947235,277.278625 
	C407.229828,274.978333 406.991791,269.404633 403.210999,266.170654 
	C399.108765,262.661682 395.339355,263.788879 390.677795,266.077515 
z"/>
<path fill="#000000" opacity="1.000000" stroke="none" 
	d="
M640.947144,417.011047 
	C643.383179,411.655243 641.769043,407.498444 636.725586,406.010162 
	C637.653381,403.525085 639.199524,401.213928 638.071899,398.216919 
	C637.207153,395.918701 637.266907,393.177795 639.578430,391.379181 
	C640.955200,390.307953 642.509583,390.737518 643.630249,391.917084 
	C645.706848,394.102783 647.128845,397.018982 645.387817,399.587677 
	C642.432190,403.948334 643.919434,407.665131 645.679810,411.677063 
	C648.435364,411.539978 649.942261,408.142975 652.975891,409.132172 
	C653.177917,411.499908 651.084656,411.793457 649.960876,412.752228 
	C647.703979,414.677795 646.018127,416.676422 646.265808,419.911835 
	C646.362488,421.175018 645.988098,422.563324 645.501282,423.761841 
	C644.719788,425.685516 643.386719,427.140930 641.085144,427.246552 
	C639.463257,427.320953 638.097656,426.739624 637.273804,425.348816 
	C636.028442,423.246368 637.173645,421.537476 638.438110,419.928986 
	C639.155457,419.016357 639.949219,418.163818 640.947144,417.011047 
z"/>
<path fill="#000000" opacity="1.000000" stroke="none" 
	d="
M558.328369,375.478027 
	C553.681641,377.532532 549.451050,377.378143 545.581909,374.782013 
	C542.774841,372.898499 541.750061,370.154327 543.648010,366.990326 
	C545.727600,363.523468 549.364075,362.663666 552.616028,364.726135 
	C552.330078,365.725433 551.439331,365.757477 550.650574,365.943329 
	C548.198181,366.521210 546.009583,367.580048 546.422668,370.526031 
	C546.812927,373.309601 549.295898,374.068237 551.635376,374.415375 
	C556.109497,375.079254 560.010437,372.032898 560.587341,367.599579 
	C561.146606,363.302032 564.339233,361.288696 567.835327,360.186310 
	C571.311401,359.090271 574.886963,360.050751 577.476013,362.765015 
	C579.852417,365.256348 579.326294,367.973602 576.908081,370.250031 
	C574.344727,372.663177 571.202087,373.789764 567.729065,373.305481 
	C564.399841,372.841248 561.473938,373.590729 558.328369,375.478027 
M574.547424,368.146027 
	C575.500366,366.868256 576.180969,365.391327 574.783691,364.178894 
	C572.938049,362.577362 570.502380,362.268219 568.281067,362.956879 
	C566.494080,363.510895 564.215820,364.567810 565.153198,367.114777 
	C565.925537,369.213379 567.079102,371.423157 570.162170,370.713287 
	C571.665771,370.367096 572.897888,369.631500 574.547424,368.146027 
z"/>
<path fill="#000000" opacity="1.000000" stroke="none" 
	d="
M603.473389,461.598755 
	C607.907166,462.864502 611.477356,463.199524 615.517517,460.267792 
	C618.309570,458.241760 622.264771,459.000305 624.258545,463.139862 
	C625.226562,465.149872 626.709412,466.911957 628.134888,469.049866 
	C624.591064,470.900574 623.094238,468.777008 621.705383,466.463196 
	C620.596130,464.615143 620.435059,461.442719 617.003235,462.743866 
	C614.118042,463.837830 612.411438,465.991089 612.481506,469.233307 
	C612.517273,470.887756 614.164673,473.290680 611.379761,473.759949 
	C608.787720,474.196686 608.589355,471.508636 607.892761,469.682556 
	C607.090759,467.580383 606.747437,464.449249 603.840393,464.794617 
	C600.922852,465.141205 599.822815,467.979462 599.356323,470.740265 
	C599.190918,471.719208 599.217407,472.730560 599.155945,473.727112 
	C599.081055,474.941284 598.917847,476.121277 597.359558,476.243317 
	C596.209229,476.333435 595.298462,475.678253 595.097595,474.669342 
	C594.527405,471.804871 592.246765,469.406189 592.660828,465.711700 
	C598.077271,468.794189 599.112976,461.895050 603.473389,461.598755 
z"/>
<path fill="#000000" opacity="1.000000" stroke="none" 
	d="
M628.543579,409.289978 
	C629.400330,412.551605 632.272339,410.138672 634.025391,411.934814 
	C630.232605,414.426025 628.829407,418.000061 629.232483,422.417358 
	C629.419556,424.467072 628.931946,426.598846 626.481628,427.079041 
	C623.719421,427.620392 621.704590,426.060333 620.138306,423.993835 
	C618.770752,422.189606 618.829590,420.204315 620.308105,418.516724 
	C621.272827,417.415558 622.517273,416.525330 623.739441,415.691650 
	C625.706177,414.350250 626.169250,412.693298 625.129700,410.465363 
	C622.860779,409.475006 620.703064,413.041901 618.387085,410.826080 
	C618.248413,409.636749 619.193237,409.353210 619.872925,409.077393 
	C623.311157,407.681854 624.189453,405.528412 622.701355,402.007477 
	C621.740906,399.735046 619.996643,396.068604 623.467346,395.241791 
	C627.111633,394.373535 627.205750,398.640106 627.925415,401.181946 
	C628.636292,403.692535 626.966003,406.439606 628.543579,409.289978 
M625.248657,423.816803 
	C626.170227,422.001129 626.218201,420.221466 625.169373,418.009979 
	C622.776733,420.218292 620.672607,421.952515 625.248657,423.816803 
z"/>
<path fill="#000000" opacity="1.000000" stroke="none" 
	d="
M590.930542,380.756104 
	C588.146179,380.500732 585.711670,379.926392 585.072144,377.277832 
	C584.477112,374.813660 586.480286,373.278259 588.180786,372.008423 
	C591.609802,369.447784 590.677185,367.176544 588.270996,364.815063 
	C585.845398,364.890289 584.456482,368.122040 581.812256,366.499695 
	C581.658386,364.616974 583.299072,364.380676 584.288086,363.674927 
	C586.356628,362.198883 587.089783,360.501190 585.792480,358.141937 
	C585.396301,357.421539 585.021057,356.626343 584.907410,355.826874 
	C584.658569,354.076416 583.916504,351.877686 586.227844,351.096405 
	C588.669983,350.270905 589.750732,352.276642 590.637878,354.126556 
	C590.920105,354.715210 591.272644,355.426727 591.177856,356.015137 
	C590.329346,361.282104 593.172485,365.599579 594.562012,370.322113 
	C595.701965,374.196259 596.928467,378.689453 590.930542,380.756104 
z"/>
<path fill="#000000" opacity="1.000000" stroke="none" 
	d="
M766.812866,436.078827 
	C767.339661,433.900085 766.320007,432.248840 766.021484,430.467590 
	C765.792664,429.102051 765.753723,427.707520 767.279541,427.056732 
	C768.956177,426.341644 770.172546,427.246918 771.077332,428.560242 
	C771.539978,429.231903 772.202698,430.141174 772.064880,430.792816 
	C770.702698,437.231415 774.434082,443.033905 774.260986,449.296387 
	C774.203918,451.362427 775.100403,453.915161 772.496216,455.003906 
	C770.313660,455.916412 768.220520,455.122437 766.639099,453.365875 
	C764.830322,451.356781 764.159241,449.070892 765.393005,446.490662 
	C765.604309,446.048676 765.988953,445.693146 766.244385,445.268127 
	C767.131470,443.792023 769.732422,443.305115 769.087708,441.007385 
	C768.279297,438.126160 765.332214,441.151947 763.949158,439.346741 
	C763.589355,437.257050 765.939819,437.521912 766.812866,436.078827 
z"/>
<path fill="#000000" opacity="1.000000" stroke="none" 
	d="
M477.290497,388.041931 
	C473.868927,387.494659 470.791138,385.325867 468.182526,389.355865 
	C467.332031,390.669830 465.219666,389.353088 464.777557,387.778900 
	C463.321472,382.593933 462.086945,377.346710 460.628235,371.572754 
	C466.492432,372.227814 464.589294,377.784973 467.633667,379.834717 
	C470.281860,379.816254 472.689117,377.644806 475.583618,378.078217 
	C479.578461,378.676392 479.064484,381.298462 477.964081,383.810120 
	C479.782013,386.202332 482.397247,383.556183 484.327057,385.513550 
	C483.018768,388.671173 480.153107,387.918793 477.290497,388.041931 
z"/>
<path fill="#000000" opacity="1.000000" stroke="none" 
	d="
M788.759155,445.164795 
	C788.732178,447.185364 788.852234,448.855133 788.614014,450.472107 
	C788.239624,453.012817 787.487244,455.620697 784.329224,455.704803 
	C781.423096,455.782135 779.287048,454.036163 778.133789,451.446411 
	C776.865845,448.598938 778.623779,446.777161 780.733643,445.185577 
	C782.306641,443.998901 784.828796,443.776093 784.160583,440.562347 
	C783.473206,437.256378 780.956360,438.035522 777.696228,438.078735 
	C780.774780,435.326080 781.707336,433.082397 780.841919,430.083374 
	C780.294556,428.186707 780.590088,425.777191 783.252319,425.461151 
	C786.149414,425.117218 788.382507,427.735657 787.622803,429.614899 
	C785.414246,435.078125 787.540771,439.815216 788.759155,445.164795 
M785.406250,450.640472 
	C785.531067,449.228790 786.237122,447.662201 784.330261,446.705902 
	C781.776062,447.628876 780.167480,449.164001 781.901794,451.885681 
	C783.078308,453.731995 784.381409,453.014191 785.406250,450.640472 
z"/>
<path fill="#000000" opacity="1.000000" stroke="none" 
	d="
M601.421021,380.981903 
	C598.419800,378.414459 596.955505,375.799774 599.241577,372.351624 
	C602.059265,373.020111 600.027161,376.026031 602.034546,376.783142 
	C604.970154,371.997467 602.721558,365.407104 597.287109,363.954498 
	C598.865784,361.663727 599.210327,359.407379 597.848511,356.787201 
	C596.584045,354.354309 596.355469,351.550079 598.960693,349.554565 
	C600.674072,348.242188 602.502441,348.648315 603.945801,350.058807 
	C606.149292,352.212097 607.395508,355.103119 605.547974,357.698669 
	C603.224548,360.962799 603.872742,363.728485 605.232666,366.938110 
	C606.625061,370.224304 606.783691,373.763947 605.982849,377.239868 
	C605.494873,379.357727 604.808105,381.582947 601.421021,380.981903 
z"/>
<path fill="#000000" opacity="1.000000" stroke="none" 
	d="
M533.998047,432.700989 
	C530.508118,433.684387 527.346985,433.608978 524.230591,433.006104 
	C522.638916,432.698212 520.719116,432.327148 520.135193,430.543793 
	C519.442078,428.427155 521.495483,427.807434 522.742249,426.822845 
	C523.399902,426.303528 524.088867,425.830872 524.090759,424.543671 
	C520.888672,422.449310 519.744080,425.196320 518.058899,427.101654 
	C516.133789,429.278259 517.505432,434.492096 513.919250,434.114624 
	C509.769257,433.677765 513.599854,429.091736 511.948303,426.508270 
	C509.915070,423.327820 508.753418,419.582336 507.286194,416.051483 
	C506.617828,414.443054 505.704132,412.744659 507.632050,410.695648 
	C511.019196,414.868378 511.285004,420.475800 515.194458,424.323608 
	C518.902954,421.528900 522.845032,418.586273 527.104004,422.705475 
	C530.363770,425.858368 525.382996,427.282745 524.921936,430.123535 
	C527.677063,431.224274 530.400452,430.834106 533.151306,430.344360 
	C535.527222,429.921356 536.699829,430.270325 533.998047,432.700989 
z"/>
<path fill="#000000" opacity="1.000000" stroke="none" 
	d="
M441.949951,274.126862 
	C436.271210,277.169373 430.782471,278.402954 424.964050,275.770569 
	C418.611786,272.896637 417.508942,266.546051 422.525848,261.796417 
	C429.094849,255.577362 436.169495,254.860886 442.399719,259.783752 
	C448.796082,264.837891 448.762878,269.012268 441.949951,274.126862 
M438.954742,260.669434 
	C436.883881,260.354095 434.865906,260.943176 432.665161,260.239960 
	C429.078644,259.094025 422.843536,264.070251 422.482300,267.821014 
	C422.156860,271.200195 425.554230,274.181732 430.197754,274.668274 
	C433.108795,274.973267 435.746368,274.196045 438.338287,272.963379 
	C445.948975,269.343842 446.281036,266.285614 438.954742,260.669434 
z"/>
<path fill="#000000" opacity="1.000000" stroke="none" 
	d="
M298.805054,273.725769 
	C300.694336,274.042542 302.225250,274.160553 303.580170,274.711517 
	C306.936584,276.076294 309.909790,278.162537 310.362366,282.007507 
	C310.807007,285.785004 307.609161,287.475494 304.953094,289.090515 
	C299.101807,292.648376 292.940155,294.928040 286.042938,292.110260 
	C282.356903,290.604431 278.764862,288.546570 279.097504,284.031372 
	C279.416809,279.697723 282.434174,276.741516 286.604462,275.667450 
	C290.437744,274.680145 294.439240,274.345978 298.805054,273.725769 
M291.045990,277.158661 
	C285.277710,277.987122 281.956055,280.813141 282.197906,284.686493 
	C282.422852,288.288635 286.162720,290.571533 291.671112,290.839844 
	C296.256714,291.063232 300.056091,289.160675 303.753082,286.908569 
	C305.858551,285.625946 308.494049,284.188416 307.236176,281.160095 
	C305.944519,278.050385 302.879578,275.523804 299.826599,276.602966 
	C296.917114,277.631439 294.391907,276.443207 291.045990,277.158661 
z"/>
<path fill="#000000" opacity="1.000000" stroke="none" 
	d="
M527.111572,488.178314 
	C523.197693,486.716858 519.394897,485.388367 521.288635,480.383759 
	C522.780823,476.440308 530.045837,473.255646 533.551331,474.822021 
	C536.598450,476.183624 536.089050,478.065186 533.807617,479.626984 
	C531.642822,481.108887 529.238770,482.241333 526.128601,483.981384 
	C533.769592,487.950928 540.412659,483.326721 547.541443,483.055695 
	C544.196655,487.383789 535.408875,489.456085 527.111572,488.178314 
z"/>
<path fill="#000000" opacity="1.000000" stroke="none" 
	d="
M499.385498,439.020203 
	C494.967102,438.100403 492.720184,435.725983 491.817261,431.632599 
	C491.011383,427.979156 489.023193,427.679047 486.364624,430.532623 
	C484.218140,432.836548 483.640808,435.780579 483.126282,438.762421 
	C482.875549,440.215149 482.551605,442.000946 480.564056,441.855286 
	C478.700714,441.718719 478.362610,440.005951 478.200897,438.501556 
	C477.937103,436.047424 477.820648,433.577454 477.611145,430.688354 
	C481.039337,431.036316 483.178772,429.176422 485.469971,427.223907 
	C488.864044,424.331482 493.655060,424.843018 494.705048,428.553253 
	C496.492310,434.868561 499.382233,438.329926 507.348297,435.271240 
	C504.995361,439.403595 502.319611,439.073547 499.385498,439.020203 
z"/>
<path fill="#000000" opacity="1.000000" stroke="none" 
	d="
M455.263123,392.350342 
	C452.640930,392.030670 451.211243,393.745361 449.386414,394.431305 
	C445.532623,395.880005 441.485168,396.906219 438.355164,393.238159 
	C436.243195,390.763214 437.002441,387.825165 438.855011,385.416687 
	C441.595856,381.853485 445.172363,380.690643 449.447998,382.500549 
	C451.820587,383.504852 454.367157,384.056335 455.118347,387.336182 
	C456.057892,391.438232 459.777405,387.850067 462.192108,389.452118 
	C460.892944,392.578888 458.152161,392.206787 455.263123,392.350342 
M448.098541,385.596832 
	C445.381989,383.468994 443.500916,385.045471 441.950806,387.158142 
	C440.848633,388.660370 441.162262,390.364136 442.443024,391.650360 
	C444.121979,393.336426 446.033295,392.838348 447.863495,391.814819 
	C450.703949,390.226288 448.697937,388.109955 448.098541,385.596832 
z"/>
<path fill="#000000" opacity="1.000000" stroke="none" 
	d="
M484.971130,379.051727 
	C487.165100,375.394714 490.159027,373.490265 493.965210,372.900787 
	C495.677338,372.635620 497.475067,372.877991 498.219727,374.658691 
	C498.925568,376.346588 497.412598,377.286499 496.381744,378.367218 
	C494.896790,379.924011 492.336761,379.874207 490.945221,382.213470 
	C496.940277,384.848175 502.354767,380.370941 508.574860,380.666779 
	C503.922150,385.297546 491.464905,387.327026 486.793915,384.773193 
	C484.496277,383.516907 483.883545,381.759186 484.971130,379.051727 
z"/>
<path fill="#000000" opacity="1.000000" stroke="none" 
	d="
M443.061584,433.042969 
	C444.037903,433.346039 444.696472,433.596161 445.333282,433.549500 
	C452.152435,433.050049 452.031708,433.035828 451.960236,439.469116 
	C451.919281,443.155182 454.717438,443.549561 457.547150,443.395081 
	C459.446960,443.291321 461.205353,441.716797 464.369446,443.296509 
	C460.721344,445.982697 457.430664,446.697174 453.672150,445.768219 
	C448.923950,444.594574 447.801880,443.027466 447.404449,437.143158 
	C445.742554,435.814758 444.374390,436.398315 443.248047,437.929382 
	C442.319672,439.191315 441.946167,441.074036 439.697815,440.895081 
	C438.148254,439.149445 439.317322,436.191040 436.773590,434.884216 
	C435.455109,434.206787 434.350616,432.792969 435.615173,431.179688 
	C436.816711,429.646790 438.490906,429.603668 440.073303,430.621368 
	C441.038910,431.242401 441.852081,432.100555 443.061584,433.042969 
z"/>
<path fill="#000000" opacity="1.000000" stroke="none" 
	d="
M258.504700,273.316864 
	C256.569061,267.822174 256.017578,262.267456 252.600647,257.231659 
	C260.482727,254.125046 268.000946,250.769897 276.402374,249.955368 
	C270.561890,253.880264 263.477600,254.880844 256.847961,257.846191 
	C259.549988,270.565887 265.169678,282.261444 267.585388,294.923950 
	C262.453217,288.735138 261.644470,280.744568 258.504700,273.316864 
z"/>
<path fill="#000000" opacity="1.000000" stroke="none" 
	d="
M692.172485,406.371033 
	C691.042725,406.342102 690.371338,406.374725 689.714844,406.290985 
	C683.533447,405.502228 680.153137,403.024567 680.690674,399.702301 
	C681.315369,395.841217 690.041382,390.809021 694.015869,392.034637 
	C694.978455,392.331451 695.937622,392.744995 696.253052,393.810059 
	C696.669373,395.215637 695.748047,396.022034 694.684021,396.575012 
	C691.786499,398.080933 688.848267,399.508759 684.762878,401.548248 
	C692.174316,405.476990 699.046570,403.026428 706.688354,403.355774 
	C701.780273,407.317017 697.047485,406.058319 692.172485,406.371033 
z"/>
<path fill="#000000" opacity="1.000000" stroke="none" 
	d="
M673.299072,394.095612 
	C676.327271,396.758667 673.675415,397.946960 672.365723,399.439178 
	C670.753662,401.275970 667.775452,401.440430 666.539978,404.194489 
	C668.240479,406.493622 670.562195,405.879303 672.810181,405.655853 
	C674.984253,405.439697 676.964111,403.550812 679.491638,404.710541 
	C674.578247,409.900360 667.063660,410.049774 662.276062,405.455200 
	C660.890991,404.126007 661.029358,403.015900 661.485901,401.488007 
	C662.910339,396.720795 667.129333,393.892090 673.299072,394.095612 
z"/>
<path fill="#000000" opacity="1.000000" stroke="none" 
	d="
M619.552490,363.817566 
	C617.215210,362.923615 614.866760,362.830170 614.700256,359.833588 
	C614.511230,356.430725 616.020447,354.063873 618.732849,352.407074 
	C621.021484,351.009094 623.593140,349.804047 626.220276,351.279633 
	C628.721436,352.684448 627.903931,354.560547 626.200195,356.108917 
	C624.536926,357.620483 622.753662,359.000061 620.831421,360.596802 
	C624.584167,363.264832 627.897156,359.683472 632.768982,361.178589 
	C627.970459,363.925293 624.208923,364.826202 619.552490,363.817566 
z"/>
<path fill="#000000" opacity="1.000000" stroke="none" 
	d="
M486.554688,333.504089 
	C488.321228,333.846497 488.533539,334.851898 487.251801,335.358032 
	C481.558655,337.606171 475.804993,340.208862 469.485565,338.400146 
	C464.201660,336.887756 463.342468,332.797791 467.321625,329.104309 
	C469.459259,327.120148 472.043518,326.018646 474.938293,325.744049 
	C476.466125,325.599091 478.184967,325.690247 478.807526,327.319519 
	C479.516388,329.174652 477.823669,329.902771 476.552429,330.640961 
	C474.303497,331.946960 472.016998,333.188263 469.904419,335.100769 
	C475.712463,337.980042 480.876678,334.585754 486.554688,333.504089 
z"/>
<path fill="#000000" opacity="1.000000" stroke="none" 
	d="
M644.480957,349.341095 
	C646.998474,350.971649 645.905334,352.293793 644.564148,353.482849 
	C643.223389,354.671509 641.772461,355.735931 639.909363,357.222076 
	C645.847717,358.922668 651.037231,356.569611 656.077576,355.994293 
	C656.910950,357.469696 656.182922,357.983521 655.421692,358.261444 
	C649.524292,360.414398 643.434631,361.005432 637.275940,359.904480 
	C635.241333,359.540802 632.777527,358.907867 632.490356,356.225311 
	C632.219482,353.694946 634.127808,352.368286 636.063232,351.290863 
	C638.557007,349.902679 641.181885,348.907349 644.480957,349.341095 
z"/>
<path fill="#000000" opacity="1.000000" stroke="none" 
	d="
M807.973328,438.058655 
	C810.360718,437.803650 812.117371,435.712006 814.418518,437.048767 
	C810.779541,441.341095 802.740173,442.717041 798.348816,439.835266 
	C795.720215,438.110291 794.813171,435.781006 796.700378,433.077820 
	C799.022217,429.751892 802.523926,428.253235 806.449768,427.823700 
	C807.808838,427.674957 809.153931,428.226440 809.561157,429.745972 
	C809.928162,431.115448 808.892151,431.891449 807.910400,432.517914 
	C805.580688,434.004517 803.205811,435.420502 800.498352,437.080078 
	C802.889648,439.532410 805.302856,438.510529 807.973328,438.058655 
z"/>
<path fill="#000000" opacity="1.000000" stroke="none" 
	d="
M814.982544,433.686035 
	C816.245483,427.074371 824.243896,424.044861 828.809082,428.217896 
	C827.307007,431.551697 823.017517,431.182007 820.587402,434.486877 
	C826.392700,437.219574 832.260010,435.028137 838.186035,435.205872 
	C833.358887,440.263458 820.235291,439.407715 814.982544,433.686035 
z"/>
<path fill="#000000" opacity="1.000000" stroke="none" 
	d="
M674.779419,453.526733 
	C673.389465,456.282288 670.361572,456.834808 668.648621,459.283936 
	C673.730286,462.467590 678.487366,458.108124 683.370422,459.123047 
	C679.742615,463.735291 668.593079,464.478302 664.998047,460.459930 
	C662.645264,457.830048 663.381897,455.243439 665.749756,453.024475 
	C668.946350,450.028900 672.283264,450.118591 674.779419,453.526733 
z"/>
<path fill="#000000" opacity="1.000000" stroke="none" 
	d="
M606.084290,405.663147 
	C610.840210,405.698334 614.006348,407.602203 614.781311,411.966614 
	C615.447876,415.720398 612.727051,417.965668 609.635498,418.885468 
	C605.558105,420.098663 601.119934,420.135284 598.344604,416.195129 
	C595.962585,412.813232 597.969421,409.943909 600.699097,407.606262 
	C602.125122,406.385010 603.739014,405.618256 606.084290,405.663147 
M601.235046,413.537354 
	C601.722656,417.095673 604.367065,416.995758 606.911804,416.709137 
	C609.246155,416.446198 611.007507,415.139771 611.430542,412.708038 
	C611.759705,410.815521 610.637695,409.468719 608.971924,408.799835 
	C606.137207,407.661499 603.735107,408.383423 602.009460,410.955383 
	C601.650696,411.490082 601.514526,412.174164 601.235046,413.537354 
z"/>
<path fill="#000000" opacity="1.000000" stroke="none" 
	d="
M750.286865,436.359985 
	C755.020996,434.861664 758.527344,436.259521 759.209656,439.877808 
	C760.031738,444.237152 756.814087,445.652344 753.593384,446.682709 
	C749.347351,448.041199 743.498352,445.578339 743.371704,442.274506 
	C743.209595,438.046509 746.384216,436.891876 750.286865,436.359985 
M753.824341,438.855743 
	C752.449280,439.642517 750.895508,439.219513 749.467590,439.505798 
	C747.702087,439.859741 746.680725,441.180511 748.073181,442.720764 
	C749.730530,444.554047 752.069092,444.313232 754.032349,443.180359 
	C755.897766,442.103973 756.548767,440.518188 753.824341,438.855743 
z"/>
<path fill="#000000" opacity="1.000000" stroke="none" 
	d="
M629.667725,461.569092 
	C630.774658,458.988434 632.454956,457.443298 634.793091,456.781830 
	C638.948425,455.606079 644.177551,458.316132 644.847046,461.888611 
	C645.400513,464.842041 641.893799,468.540833 637.987549,469.123718 
	C633.320312,469.820190 630.002258,466.977753 629.667725,461.569092 
M635.869019,466.109558 
	C638.705872,466.338440 640.979919,465.273560 641.249634,462.356537 
	C641.453491,460.150940 639.264893,459.591248 637.412048,459.359070 
	C635.786255,459.155304 634.450745,459.881104 633.739624,461.323914 
	C632.797424,463.235413 633.283508,464.833557 635.869019,466.109558 
z"/>
<path fill="#000000" opacity="1.000000" stroke="none" 
	d="
M578.811157,415.019104 
	C581.236389,408.211517 585.996887,406.009155 589.871948,409.524078 
	C589.669861,409.766235 589.482910,410.204895 589.262451,410.222412 
	C585.678223,410.506805 582.029846,411.459351 582.638428,415.798279 
	C583.224609,419.977661 587.222534,420.106232 590.625000,419.868896 
	C593.178894,419.690765 595.698853,419.028168 598.338013,419.070953 
	C595.273926,422.891724 591.094604,422.985016 586.893005,422.336823 
	C582.904846,421.721558 579.570862,419.976624 578.811157,415.019104 
z"/>
<path fill="#000000" opacity="1.000000" stroke="none" 
	d="
M727.435730,446.694214 
	C725.192017,442.421997 727.370911,439.837646 730.584229,438.414520 
	C733.262695,437.228271 736.546448,436.535583 738.620178,439.971863 
	C737.673828,441.331390 736.707825,440.783844 735.761353,440.578278 
	C733.117920,440.004059 730.709961,440.688446 730.591919,443.577484 
	C730.465881,446.662689 733.254517,446.764435 735.650024,446.995026 
	C738.152222,447.235931 740.576233,445.199249 743.335144,446.579498 
	C738.538635,450.977875 733.277649,451.039398 727.435730,446.694214 
z"/>
<path fill="#000000" opacity="1.000000" stroke="none" 
	d="
M659.163696,453.411194 
	C659.980774,454.430176 660.834595,455.128479 659.899719,456.558594 
	C650.814148,452.555695 654.232117,461.004669 652.535278,464.418945 
	C649.611267,463.628967 646.820068,459.423920 647.600281,457.239685 
	C648.580750,454.495209 655.682251,451.938873 659.163696,453.411194 
z"/>
<path fill="#000000" opacity="1.000000" stroke="none" 
	d="
M467.794861,440.587891 
	C467.675385,438.222961 467.557617,436.253265 467.539185,434.282623 
	C467.529724,433.267792 467.794952,432.229889 468.985626,432.026581 
	C470.209412,431.817627 470.772461,432.679474 470.961731,433.732391 
	C471.474487,436.584229 471.147461,439.600525 473.249725,442.106201 
	C473.910980,442.894348 473.024414,444.060638 471.918304,444.246063 
	C469.426300,444.663879 468.355682,443.127319 467.794861,440.587891 
z"/>
<path fill="#000000" opacity="1.000000" stroke="none" 
	d="
M473.120972,421.509491 
	C470.281982,425.708771 465.327393,424.366791 461.343506,425.897705 
	C464.082977,421.610809 468.566406,421.701782 473.120972,421.509491 
z"/>
<path fill="#000000" opacity="1.000000" stroke="none" 
	d="
M479.393646,269.195129 
	C478.861481,270.764740 477.815643,271.191132 476.595917,271.040131 
	C475.236969,270.871887 474.003479,270.283020 473.687073,268.804962 
	C473.573273,268.273315 473.819092,267.441925 474.208588,267.067535 
	C475.321228,265.998077 476.640900,266.191040 477.787231,267.050537 
	C478.414764,267.521027 478.852722,268.244385 479.393646,269.195129 
z"/>
</svg>